# xmcd
#
# Track frame offsets: 
#        150
#        15690
#        35946
#        52279
#        69034
#        86396
#        108881
#        122667
#        139649
#        154746
#        172794
#
# Disc length: 2406 seconds
#
# Revision: 0
# Processed by: cddbd v1.5.2PL0 Copyright (c) Steve Scherf et al.
# Submitted via: ExactAudioCopy v0.99pb4
#
DISCID=8709640b
DTITLE=Cezary Makiewicz - Dobra Piosenka
DYEAR=2009
DGENRE=Country
TTITLE0=Byl sobie maz
TTITLE1=Takich chwil nam do zycia potrzeba
TTITLE2=Dalej...
TTITLE3=Dobra piosenka
TTITLE4=Zdechl pies
TTITLE5=Sierpien
TTITLE6=Jest szansa na nastepny raz
TTITLE7=Ballada o Jacku Sz.
TTITLE8=Nasza klasa
TTITLE9=Jednym slowem
TTITLE10=Bajraroad
EXTD=
EXTT0=
EXTT1=
EXTT2=
EXTT3=
EXTT4=
EXTT5=
EXTT6=
EXTT7=
EXTT8=
EXTT9=
EXTT10=
PLAYORDER=
